# xmcd CD database file
#
# Track frame offsets:
#	150
#	16128
#	29872
#	45281
#	66202
#	79544
#	93841
#	111587
#	129221
#	143450
#
# Disc length: 2160 seconds
#
# Revision: 0
# Processed by: cddbd v1.5.2PL0 Copyright (c) Steve Scherf et al.
# Submitted via: CDex 1.51
#
DISCID=76086e0a
DTITLE=Lonesome Shack - Desert Dreams
DYEAR=2019
DGENRE=Blues
TTITLE0=On The One
TTITLE1=Past The Ditch
TTITLE2=New Dream
TTITLE3=Lonely
TTITLE4=Only One
TTITLE5=Too Bad
TTITLE6=King Clone
TTITLE7=No Way Back
TTITLE8=The City Is A Desert
TTITLE9=Desert Dreams
EXTD=YEAR: 2019
EXTT0=
EXTT1=
EXTT2=
EXTT3=
EXTT4=
EXTT5=
EXTT6=
EXTT7=
EXTT8=
EXTT9=
PLAYORDER=
